<svg xmlns="http://www.w3.org/2000/svg" viewBox="0 0 273.96 287.37"><defs><style>.cls-1,.cls-4{fill:#fff;}.cls-2,.cls-3{fill:none;}.cls-2,.cls-4{stroke:#000;}.cls-2,.cls-3,.cls-4,.cls-6{stroke-miterlimit:10;}.cls-2{stroke-width:1.5px;}.cls-3,.cls-6{stroke:#231f20;}.cls-4{stroke-width:0.98px;}.cls-5,.cls-9{fill:#eb2227;}.cls-5{fill-rule:evenodd;}.cls-6{font-size:39.24px;stroke-width:1.09px;font-family:SFElectrotome, SF Electrotome;letter-spacing:0.02em;}.cls-11,.cls-6{fill:#231f20;}.cls-7{letter-spacing:-0.07em;}.cls-8{letter-spacing:0.03em;}.cls-10{fill:#010101;}</style></defs><g id="Layer_2" data-name="Layer 2"><g id="Layer_1-2" data-name="Layer 1"><path class="cls-1" d="M39.59,3.05c-9.33-5.39-17-1-17,9.8V274.52c0,10.78,7.64,15.19,17,9.8L266.21,153.48c9.33-5.39,9.33-14.2,0-19.59Z"/><path class="cls-2" d="M39.59,3.05c-9.33-5.39-17-1-17,9.8V274.52c0,10.78,7.64,15.19,17,9.8L266.21,153.48c9.33-5.39,9.33-14.2,0-19.59Z"/><path d="M38.46,20.7v246a1,1,0,0,0,1.5.86L237.34,153.58c8.6-5,15.63-9.2,15.63-9.42s-7-5.4-15.63-10.37L40,19.84A1,1,0,0,0,38.46,20.7Z"/><path class="cls-3" d="M38.46,20.7v246a1,1,0,0,0,1.5.86L237.34,153.58c8.6-5,15.63-9.2,15.63-9.42s-7-5.4-15.63-10.37L40,19.84A1,1,0,0,0,38.46,20.7Z"/><path class="cls-4" d="M97.93,29.42c-.94.55-1.08,2.23-.57,6.93.55,5.29.28,7-1.56,9.42-1.48,1.93-3.24,2.8-6.94,3.38C81.22,50.36,70.32,47.68,62,42.56a7.43,7.43,0,0,0-3.25-1.31c-2,.31-14.89,8.67-17.58,11.42-1,1-1.42,1.77-1.33,2.35a12.07,12.07,0,0,0,2.76,3.2c3.23,2.93,4.58,5,5,7.52,1.31,8.33-9.49,15.8-26.21,18.08-5.65.77-6.11.88-7,1.82-1.26,1.26-2.85,4.24-5.17,9.59C5.67,103.33,4.88,107.05,6.4,108a10.85,10.85,0,0,0,3.29.54,14.87,14.87,0,0,1,7.89,2.44c1.18.92,1.41,1.4,1.9,3.73a20.42,20.42,0,0,1-.4,10.3c-1,3.45-5.09,9.11-9.59,13.37C-.48,147.86,0,147,1,154.54c.89,6.9.84,6.83,5.34,4.82,7.42-3.35,12.43-2.44,15.38,2.79,1.48,2.62,2.27,8.86,1.71,13.33a67.92,67.92,0,0,1-4.28,16c-1.89,4.3-1.91,4.18,1.42,9.55,4,6.48,10.4,13.78,11.86,13.55a13,13,0,0,0,2.47-2.88c2.32-3.14,5.58-5.78,8.15-6.54,4.64-1.41,10.65,3.1,14.83,11.1,2.32,4.46,3.33,7.62,4.77,14.71,1.25,6.48,1.3,6.51,2.49,7.31s14.29,5.38,18.24,6.38c2.07.55,3.38.1,3.78-1.34a36.69,36.69,0,0,0,.59-4.33c.41-4.13,1-5.89,2.63-7.92,4.53-5.62,14.77-3.32,26.5,5.91a79,79,0,0,1,6.34,5.6,13.6,13.6,0,0,0,3.54,2.88c2,.64,17.73-2.35,21-4,1.5-.79,1.64-1.92.45-4.9a43.39,43.39,0,0,1-1.68-7.2l-.77-4.9,1-1.42c1.16-1.69,5.14-4.53,7.89-5.59a13.4,13.4,0,0,1,5.56-.88,91.81,91.81,0,0,1,18,1.76c4.59,1.06,6,.79,8.66-1.72s11.39-13,11.64-14c.2-.7-.45-1.31-4.45-4.12-5.46-3.84-6.47-5.19-6.83-9.24a7.61,7.61,0,0,1,.85-4.88,23.82,23.82,0,0,1,7.64-8.52c3.68-2.71,7.15-4.52,14-7.38,3.3-1.35,6.13-2.74,6.49-3.19.76-.95,3.53-17.24,3.45-20-.1-1.61-.24-2-1.16-2.83s-1.4-.88-5.3-.55c-7.58.57-11.22-1.47-12.36-6.91a11,11,0,0,1,.12-6,66.56,66.56,0,0,1,4.64-13,65.17,65.17,0,0,1,4-6.37c4.42-6.35,4.51-7,1.79-13.52A128.9,128.9,0,0,0,204.72,83c-1-1.42-2-1.26-3.87.77a27.33,27.33,0,0,1-3.14,2.71,10.28,10.28,0,0,1-12.42-.3c-3.76-3-5.25-6.52-6.64-15.32a49.87,49.87,0,0,1-.71-13.53c.2-3.54-.26-4.66-2.87-7-3.86-3.38-15.84-10.67-17.23-10.45-.73.12-1.09.85-2.06,4-1.39,4.49-3.29,7.24-5.8,8.35-5.17,2.32-12.42-.54-18.84-7.43a67.18,67.18,0,0,1-8.67-11.84c-2.06-4.06-3.06-4.38-13.44-4.53C103.61,28.33,99,28.73,97.93,29.42Z"/><path d="M87.54,66.88a72,72,0,0,1,43.65.8,67.18,67.18,0,0,1,21,11,76.88,76.88,0,0,1,18,19,108,108,0,0,1,9,18.77,74.86,74.86,0,0,1,2.13,35.15,96.26,96.26,0,0,1-5.51,17.62c-7.93,17.36-23.05,31.67-40.4,38.25-24.07,9.12-50.51,5.81-70.75-8.86-9.16-6.62-15.18-13.73-21.48-25.28C38,163.82,36,158,34.74,149a74,74,0,0,1,3.15-34c4.83-15.15,13.52-27.53,25-35.67,4.6-3.29,4.56-3.27,12.88-7.38C82,68.85,84.4,67.85,87.54,66.88Z"/><path class="cls-5" d="M203.84,146.51c-4,.3-9.66-1.37-14-4.32,2.66-.55,4.26-.76,6.08-1.76a9.67,9.67,0,0,0-1-1.69c3.27,2.79,7.9-1.66,7.6-5-2.35,1.71-9.84.22-14.83-.89a15.22,15.22,0,0,0,5.88-5.65,17.29,17.29,0,0,0-1.32-2c6.25,3.8,5.59-8.26,3.35-12.36-1.74,3.59-5.89,6.1-9.92,7.13a11.87,11.87,0,0,0,2-8.84c2-2.73-1-16.52-5.36-24.25,3,10.55.9,17.19-2.79,21.9a39.63,39.63,0,0,0,.07-12,3.33,3.33,0,0,0-1.49-1.14c.55-.23,1.09-.44,1.47-.56a122.83,122.83,0,0,0-12.23-31.88c5.28,13.83,8.2,26.45,6.77,34.67,0-2-2.25-20.13-6.05-26-.6-3.64-5.48-14.67-9-20.14,7.25,19.1,8.16,32.27,7.19,40.85-1.58.78,3.24-4-6.42,24.24-2,3.06-.59,2.87-6.28,9.1-3.59,3.93-17.87,9-23.3,6.16-.32-.74-2.61-4.74-5.09-9,.55-1.41,1.88-2.2,2.67-3a7.31,7.31,0,0,0-3.7,1.19l-.36-.6a10,10,0,0,1,6.37-2.13,12.16,12.16,0,0,0-4.4-.37c2.15-1.53,5.54-.2,8.09.91a20,20,0,0,0-3.39-3.83c1-1.23,3.77-.48,3.65-2.43.09.27.19.57.32.93-.28,1.34-3,.28-2.88,1.78,1.62.31,10.23,1.22,12.27,9.52.29-1.85,1.22-8.72-4.86-11.58-1.35.25-.47,2.27-1.24,2.43-1-1.73,0-2.38.44-3.34-1.74-2.27-3.14-2.43-3.72-1.55l-.16-.18c0,.09-.13.06-.25.1l0-1.66c-3.27-5.61-7.17-10.11-10.67-12.7-2.72-2.21-19.47-13.41-21.77-14.87a11,11,0,0,1,1,1.89c1,2.64,5.79,11.36,6.17,12.1-3.38-2,0,3.9-1.61,4.89.72.12,2,1,2.44.71-.41,1.73-1.73,2.83-2.42,4.39.67.61,1,.53,1.75,1.13a10.7,10.7,0,0,0-.76,7,1.82,1.82,0,0,1,2.27-.17,12,12,0,0,0,.23,5.87c.42-.85,1.47-1.77,2.48-1a21.84,21.84,0,0,0,.84,5.07c.06-1.37,1.73-2.44,2.69-1.91a8.1,8.1,0,0,0-.22,1.29s-.08.08-.11.31c-1.09-.78-.63,4.5-1.64,4.31-2.28-.46,1.56,4.14-2.78,3.41-3.23,1.09-11.31,1.07-14.25-.09-2.57-1-4.81-2.73-7.15-3.9-3.46-1.79-5.86-4.82-8.81-7a32,32,0,0,1-9.39-12.55c-2.27-7.26-3-15-4.84-15.53C66.37,87,70.94,71.56,84,51.18,79.12,57.64,64.41,79,65,81.43a44.3,44.3,0,0,0-5.07,11.42C61.48,85.32,65.06,76.4,72.28,65,64.15,76.08,56.45,90,54.74,94.74a3.15,3.15,0,0,0,.62,1.36,4.27,4.27,0,0,0-1.84.9,53,53,0,0,0-2.74,10.35c-2.44-3.33-1.11-11.16,3-19.81-9.53,15-11.52,24.29-11.39,32.7-4.69-.27-7.69-1.89-8-5.57-3.25,6.61-2.47,15.26,1.27,13.6a10.07,10.07,0,0,1-2.33,1.59c.29,1.9,1.77,2.85,3.24,3.83-4.63,1.75-9.4,3.36-13.78,3.11-.88,4.42,5.38,7.94,10.06,6.86a73.56,73.56,0,0,1-14.08,5.19c2.22,2.78,7.53,3.83,12.51,3.72a51.34,51.34,0,0,1-10.7,5.33c2.19,2.07,6.3,2.73,11.06,2.52-2.31,1.47-11.69,6.05-13.72,6.24,2.63,2.76,14.78,1.48,18.29.23a61.76,61.76,0,0,1-10,5.89c2.48,1.33,11.41-.76,13.77-1.54a64.2,64.2,0,0,1-11.1,8.08,70,70,0,0,0,19-4.55c-1.49,1.37-10,7.66-12.16,9,2.67,1,13.43-2.12,18.16-4.86a50.89,50.89,0,0,1-11.38,9.92c4.46-.52,12.56-3.15,16.39-5.9-2.68,2.9-8.27,8.75-12.56,11.81a69.87,69.87,0,0,0,17.09-8.18c-2.25,3.81-5.7,7.14-10.09,10.89,6.28-1.58,12.44-6.45,16.83-9.69a59.3,59.3,0,0,1-8.45,10.51,58.29,58.29,0,0,0,13.69-9.21,34.87,34.87,0,0,1-5.89,8.34A37,37,0,0,0,79,191.47a35.17,35.17,0,0,1-3.06,6.6,26.87,26.87,0,0,0,6.19-4.27A29.09,29.09,0,0,1,79.32,198a24.9,24.9,0,0,0,9.5-8c2.38-.18,8.48-12.58,8.55-13.21.72-.33,3.52.6,4.35,1.16.36,5.23-.47,6.88-3.36,11.67-3.35,2.5-15.59,36.06-13.53,34.54,1,1.93,3.57,3,6.66,3,2.26-.05,3.23,4.32,8.08,2-.37,2.34,1.93,7.4,7.77,5.87,2.12-.57,2.31-2.09,3.86-1a9.83,9.83,0,0,0,12.63-1.85c2.58-3.39,7.55-4.12,7.32-5.46,1.65,1.58-5.14-27.83-9.65-34.38-1.11-2-6-9.91,7.54-15.52,1,2.24,10.29,18.15,12.51,18.78a17,17,0,0,1-2.63-5.83,30.49,30.49,0,0,0,7.48,5.17,16.22,16.22,0,0,1-2.74-5.64,30.66,30.66,0,0,0,8.62,6.73,36.76,36.76,0,0,1-4-6.81c1.62,2,7.19,6.13,9.82,6.53-2.19-2.33-5-7-6.69-10.12,2.36,2.48,10.41,7.2,13.59,6.46a26.46,26.46,0,0,1-5.35-5.84c1.7,1.23,10.92,5.48,12.81,4.13-3.05-1.79-9.6-8.26-11.55-11,4.87,3.65,11,7.37,17.39,7.36A56.19,56.19,0,0,1,168,177.54c5.06,2.06,10.88,4.07,16.73,4.62a64.68,64.68,0,0,1-11.88-9.32c4.87,2.92,11.49,3.42,17.12,3.39a54.39,54.39,0,0,1-10.3-8.57c4.18,1.75,10.91,3.61,14.65,3a89.35,89.35,0,0,1-11.92-8.1c6.09,2.06,13.39,3.18,19.41,2.23a71.67,71.67,0,0,1-12.72-7.71c4,.14,9,0,10.63-2.2-3.23-.58-8-3.36-10.46-5.07a11.81,11.81,0,0,0,2.05-.4,8,8,0,0,0-.75-1.32C195.38,151.29,203.27,149.43,203.84,146.51Zm-67.31-33c.77,1.38-.48,1-.86,1.64C134.57,114.27,135.48,112.42,136.53,113.48ZM130.44,110c.43.83-.57,1.49-1.42-.91C129.39,109.06,130.06,109.8,130.44,110ZM127.35,108c1,3,4.27,4.88,4.27,2.41.1.06,1.14.61,1.27.72-2.79,4.46-6.62-.57-6.89-4.14C126.15,107.17,127.18,107.93,127.35,108Z"/><path class="cls-5" d="M113.35,114.52c.14.18.4.42.42.57a3.8,3.8,0,0,1,2.32,1.78A3.92,3.92,0,0,0,113.35,114.52Z"/><text class="cls-6" transform="matrix(1, 0, -0.38, 0.82, 34.18, 158.23)">OH<tspan class="cls-7" x="39.67" y="0">V</tspan><tspan class="cls-8" x="57.84" y="0">A CTE</tspan></text><rect class="cls-9" x="37.17" y="149.18" width="142.39" height="2.39"/><path class="cls-10" d="M171.21,173.38l-.69.65c-.15.14-.38.34-.51.44s-.35.28-.47.39a16,16,0,0,1-1.94,1.31,6.21,6.21,0,0,1-3.29.91,21.28,21.28,0,0,1-5-.54,26.79,26.79,0,0,1-4.35-1.35h0a23.68,23.68,0,0,1-1.7-3.6l.34-.29a7.52,7.52,0,0,1,4.38-1.77,11.85,11.85,0,0,1,4.34.63,30.66,30.66,0,0,0,7.32,1.57,14.46,14.46,0,0,0,2.72-.26,5,5,0,0,1,.61-.09A19.54,19.54,0,0,1,171.21,173.38Z"/><path class="cls-11" d="M144.57,171.56c.84,1.34,2.14,2.75,2,4l-.19,0a1.16,1.16,0,0,0-.49.06c-.86.22-2.82.62-4,.83a66.63,66.63,0,0,1-15,1c-3.15-.15-5.93-.21-20.5-.45-17.16-.28-26-.48-33.41-.73-11.33-.39-17.69-.89-18.71-1.49-.16-.09-.24-.16-.22-.21s.12-.14.26-.2c1.44-.7,9-1.43,23-2.21,6.92-.39,12.4-.65,30.21-1.44,10.31-.47,13.79-.65,16.48-.86a73,73,0,0,1,14.91.53c1.62.2,4.09.57,5.16.77l.36.06A1,1,0,0,0,144.57,171.56Z"/><path class="cls-10" d="M156.73,174.82a1.53,1.53,0,0,0-.39-.1,1,1,0,0,0,.13.28l.14.25h-2c-3.77,0-6.73-.05-7.6-.09.08-1.18-1.73-2.56-2.93-3.87a.85.85,0,0,1-.2-.37h.18s2.23,0,4.93,0l4.92,0,.13.22.14.22.08-.06A24,24,0,0,0,156.73,174.82Z"/><polygon class="cls-1" points="123.47 184.51 117.77 173.85 108.24 174.12 106.87 167.86 99.83 182.34 96 169.22 92.84 175 83.25 175.08 80.71 170.42 77.74 175.34 64.49 175.27 56.17 174.6 62.1 173.42 64.29 173.35 76.09 173.42 80.89 166.01 84.81 173.19 91.26 173.14 96.69 163.21 100.33 175.68 107.83 160.2 110.28 172.19 119.57 171.93 124.03 179.01 129.93 165.31 133.42 172.79 138.78 172.81 143.03 162.18 149.14 177.8 155.67 172.1 170.86 171.98 168.45 174.03 156.88 174.14 148.13 181.58 143 168.49 140.53 174.69 131.75 174.65 129.7 170.25 123.47 184.51"/></g></g></svg>